<?xml version="1.0" encoding="iso-8859-1"?>
<!-- Generator: Adobe Illustrator 19.0.0, SVG Export Plug-In . SVG Version: 6.00 Build 0)  -->
<svg version="1.1" id="Layer_1" xmlns="http://www.w3.org/2000/svg" xmlns:xlink="http://www.w3.org/1999/xlink" x="0px" y="0px"
	 viewBox="0 0 512 512" style="enable-background:new 0 0 512 512;" xml:space="preserve">
<path style="fill:#127C8D;" d="M471.149,471.149c0,17.974-14.706,32.681-32.681,32.681H73.532
	c-17.974,0-32.681-14.706-32.681-32.681V40.851c0-17.974,14.706-32.681,32.681-32.681h364.936c17.974,0,32.681,14.706,32.681,32.681
	V471.149z"/>
<g>
	<rect x="272.34" y="393.532" style="fill:#8FD9C2;" width="66.723" height="66.723"/>
	<rect x="172.936" y="393.532" style="fill:#8FD9C2;" width="66.723" height="66.723"/>
	<rect x="172.936" y="294.128" style="fill:#8FD9C2;" width="66.723" height="66.723"/>
	<rect x="73.532" y="393.532" style="fill:#8FD9C2;" width="66.723" height="66.723"/>
</g>
<rect x="371.745" y="228.766" style="fill:#F56E92;" width="66.723" height="32.681"/>
<g>
	<rect x="272.34" y="294.128" style="fill:#8FD9C2;" width="66.723" height="66.723"/>
	<rect x="73.532" y="294.128" style="fill:#8FD9C2;" width="66.723" height="66.723"/>
	<rect x="272.34" y="228.766" style="fill:#8FD9C2;" width="66.723" height="32.681"/>
</g>
<rect x="371.745" y="294.128" style="fill:#4BBCD6;" width="66.723" height="166.128"/>
<rect x="73.532" y="51.745" style="fill:#FFD15D;" width="364.936" height="133.447"/>
<g>
	<path style="fill:#3E0412;" d="M339.064,385.362H272.34c-4.513,0-8.17,3.658-8.17,8.17v66.723c0,4.512,3.657,8.17,8.17,8.17h66.723
		c4.513,0,8.17-3.658,8.17-8.17v-66.723C347.234,389.02,343.577,385.362,339.064,385.362z M330.894,452.085h-50.383v-50.383h50.383
		V452.085z"/>
	<path style="fill:#3E0412;" d="M239.66,385.362h-66.723c-4.513,0-8.17,3.658-8.17,8.17v66.723c0,4.512,3.657,8.17,8.17,8.17h66.723
		c4.513,0,8.17-3.658,8.17-8.17v-66.723C247.83,389.02,244.173,385.362,239.66,385.362z M231.489,452.085h-50.383v-50.383h50.383
		V452.085z"/>
	<path style="fill:#3E0412;" d="M239.66,285.957h-66.723c-4.513,0-8.17,3.658-8.17,8.17v66.723c0,4.512,3.657,8.17,8.17,8.17h66.723
		c4.513,0,8.17-3.658,8.17-8.17v-66.723C247.83,289.616,244.173,285.957,239.66,285.957z M231.489,352.681h-50.383v-50.383h50.383
		V352.681z"/>
	<path style="fill:#3E0412;" d="M140.255,385.362H73.532c-4.513,0-8.17,3.658-8.17,8.17v66.723c0,4.512,3.657,8.17,8.17,8.17h66.723
		c4.513,0,8.17-3.658,8.17-8.17v-66.723C148.426,389.02,144.769,385.362,140.255,385.362z M132.085,452.085H81.702v-50.383h50.383
		V452.085z"/>
	<path style="fill:#3E0412;" d="M438.468,220.596h-66.723c-4.513,0-8.17,3.658-8.17,8.17v32.681c0,4.512,3.657,8.17,8.17,8.17
		h66.723c4.513,0,8.17-3.658,8.17-8.17v-32.681C446.638,224.254,442.981,220.596,438.468,220.596z M430.298,253.277h-50.383v-16.34
		h50.383V253.277z"/>
	<path style="fill:#3E0412;" d="M339.064,285.957H272.34c-4.513,0-8.17,3.658-8.17,8.17v66.723c0,4.512,3.657,8.17,8.17,8.17h66.723
		c4.513,0,8.17-3.658,8.17-8.17v-66.723C347.234,289.616,343.577,285.957,339.064,285.957z M330.894,352.681h-50.383v-50.383h50.383
		V352.681z"/>
	<path style="fill:#3E0412;" d="M140.255,285.957H73.532c-4.513,0-8.17,3.658-8.17,8.17v66.723c0,4.512,3.657,8.17,8.17,8.17h66.723
		c4.513,0,8.17-3.658,8.17-8.17v-66.723C148.426,289.616,144.769,285.957,140.255,285.957z M132.085,352.681H81.702v-50.383h50.383
		V352.681z"/>
	<path style="fill:#3E0412;" d="M339.064,220.596H272.34c-4.513,0-8.17,3.658-8.17,8.17v32.681c0,4.512,3.657,8.17,8.17,8.17h66.723
		c4.513,0,8.17-3.658,8.17-8.17v-32.681C347.234,224.254,343.577,220.596,339.064,220.596z M330.894,253.277h-50.383v-16.34h50.383
		V253.277z"/>
	<path style="fill:#3E0412;" d="M438.468,0H73.532C51.006,0,32.681,18.325,32.681,40.851v430.298
		c0,22.526,18.325,40.851,40.851,40.851h364.936c22.526,0,40.851-18.325,40.851-40.851V40.851C479.319,18.325,460.994,0,438.468,0z
		 M462.979,471.149c0,13.516-10.996,24.511-24.511,24.511H73.532c-13.515,0-24.511-10.995-24.511-24.511V40.851
		c0-13.516,10.996-24.511,24.511-24.511h364.936c13.515,0,24.511,10.995,24.511,24.511V471.149z"/>
	<path style="fill:#3E0412;" d="M438.468,285.957h-66.723c-4.513,0-8.17,3.658-8.17,8.17v166.128c0,4.512,3.657,8.17,8.17,8.17
		h66.723c4.513,0,8.17-3.658,8.17-8.17V359.489c0-4.512-3.657-8.17-8.17-8.17c-4.513,0-8.17,3.658-8.17,8.17v92.596h-50.383V302.298
		h50.383v24.511c0,4.512,3.657,8.17,8.17,8.17c4.513,0,8.17-3.658,8.17-8.17v-32.681
		C446.638,289.616,442.981,285.957,438.468,285.957z"/>
	<path style="fill:#3E0412;" d="M438.468,43.574H73.532c-4.513,0-8.17,3.658-8.17,8.17v133.447c0,4.512,3.657,8.17,8.17,8.17h66.723
		c4.513,0,8.17-3.658,8.17-8.17s-3.657-8.17-8.17-8.17H81.702V59.915h348.596v117.106H172.936c-4.513,0-8.17,3.658-8.17,8.17
		s3.657,8.17,8.17,8.17h265.532c4.513,0,8.17-3.658,8.17-8.17V51.745C446.638,47.233,442.981,43.574,438.468,43.574z"/>
</g>
<g>
	<path style="fill:#FF7226;" d="M405.787,92.596h-32.681c-4.513,0-8.17-3.658-8.17-8.17s3.657-8.17,8.17-8.17h32.681
		c4.513,0,8.17,3.658,8.17,8.17S410.3,92.596,405.787,92.596z"/>
	<path style="fill:#FF7226;" d="M405.787,157.957h-32.681c-4.513,0-8.17-3.658-8.17-8.17s3.657-8.17,8.17-8.17h32.681
		c4.513,0,8.17,3.658,8.17,8.17S410.3,157.957,405.787,157.957z"/>
	<path style="fill:#FF7226;" d="M373.106,136.17c-4.513,0-8.17-3.658-8.17-8.17v-21.787c0-4.512,3.657-8.17,8.17-8.17
		c4.513,0,8.17,3.658,8.17,8.17V128C381.277,132.512,377.62,136.17,373.106,136.17z"/>
</g>
<g>
</g>
<g>
</g>
<g>
</g>
<g>
</g>
<g>
</g>
<g>
</g>
<g>
</g>
<g>
</g>
<g>
</g>
<g>
</g>
<g>
</g>
<g>
</g>
<g>
</g>
<g>
</g>
<g>
</g>
</svg>
